<?xml version="1.0"?>
<svg xmlns="http://www.w3.org/2000/svg" xmlns:xlink="http://www.w3.org/1999/xlink" version="1.1" id="Capa_1" x="0px" y="0px" viewBox="0 0 512 512" style="enable-background:new 0 0 512 512;" xml:space="preserve" width="512px" height="512px" class=""><g><g>
	<g>
		<path d="M477,54H301.807c-5.523,0-10,4.478-10,10s4.477,10,10,10H477c8.271,0,15,6.729,15,15v270c0,8.271-6.729,15-15,15H320    c-2.652,0-5.196,1.054-7.071,2.929L256,433.857l-56.929-56.929C197.196,375.054,194.652,374,192,374H35c-8.271,0-15-6.729-15-15    V89c0-8.271,6.729-15,15-15h172.654c5.523,0,10-4.478,10-10c0-5.522-4.477-10-10-10H35C15.701,54,0,69.701,0,89v270    c0,19.299,15.701,35,35,35h152.858l61.071,61.071c1.953,1.952,4.512,2.929,7.071,2.929s5.119-0.977,7.071-2.929L324.142,394H477    c19.299,0,35-15.701,35-35V89C512,69.701,496.299,54,477,54z" data-original="#000000" class="active-path" data-old_color="#d8c060" fill="#d8c060"/>
	</g>
</g><g>
	<g>
		<path d="M263.07,56.93C261.21,55.07,258.63,54,256,54s-5.21,1.069-7.07,2.93C247.07,58.79,246,61.37,246,64s1.07,5.21,2.93,7.069    C250.79,72.93,253.37,74,256,74s5.21-1.07,7.07-2.931C264.93,69.21,266,66.63,266,64S264.93,58.79,263.07,56.93z" data-original="#000000" class="active-path" data-old_color="#d8c060" fill="#d8c060"/>
	</g>
</g><g>
	<g>
		<path d="M137.999,128.319c-51.832,0-94,42.169-94,94.001c0,51.831,42.168,93.999,94,93.999c51.832,0,94-42.168,94-93.999    C231.999,170.488,189.83,128.319,137.999,128.319z M137.999,296.319c-22.51,0-42.691-10.116-56.275-26.026    c12.552-10.789,28.478-17.727,45.684-19.745c4.631-0.543,8.271-4.214,8.777-8.849c0.505-4.635-2.26-9.004-6.666-10.531    c-10.405-3.607-17.396-13.432-17.396-24.446c0-14.267,11.607-25.873,25.875-25.873s25.875,11.606,25.875,25.873    c0,11.015-6.991,20.839-17.396,24.446c-4.405,1.527-7.17,5.896-6.666,10.531c0.505,4.635,4.146,8.306,8.777,8.849    c17.207,2.018,33.133,8.956,45.685,19.745C180.69,286.203,160.509,296.319,137.999,296.319z M173.468,235.806    c6.575-8.021,10.406-18.226,10.406-29.084c0-25.295-20.579-45.873-45.875-45.873c-25.296,0-45.875,20.578-45.875,45.873    c0,10.857,3.833,21.063,10.405,29.084c-11.594,3.983-22.332,9.915-31.697,17.518c-4.374-9.438-6.833-19.937-6.833-31.004    c0-40.805,33.196-74.001,74-74.001c40.804,0,74,33.196,74,74.001c0,11.068-2.46,21.567-6.834,31.005    C195.8,245.721,185.062,239.789,173.468,235.806z" data-original="#000000" class="active-path" data-old_color="#d8c060" fill="#d8c060"/>
	</g>
</g><g>
	<g>
		<path d="M346.927,157.611c-1.361-4.186-4.911-7.179-9.271-7.813l-17.651-2.561l-7.897-15.99    c-1.949-3.946-5.893-6.397-10.294-6.397c0,0-0.001,0-0.002,0c-4.402,0.001-8.346,2.453-10.294,6.402l-7.889,15.996l-17.648,2.569    c-4.357,0.634-7.908,3.628-9.268,7.816c-1.359,4.187-0.246,8.696,2.908,11.77l12.775,12.445l-3.011,17.581    c-0.742,4.338,1.009,8.64,4.57,11.227c2.012,1.461,4.366,2.203,6.735,2.203c1.825,0,3.661-0.44,5.356-1.332l15.785-8.305    l15.793,8.299c3.898,2.044,8.532,1.707,12.09-0.883c3.559-2.59,5.307-6.893,4.561-11.228l-3.02-17.578l12.77-12.453    C347.175,166.306,348.287,161.797,346.927,157.611z M314.082,170.645c-2.703,2.639-3.936,6.437-3.296,10.16l0.855,4.979    l-4.476-2.352c-3.35-1.758-7.347-1.755-10.682,0.005l-4.472,2.353l0.852-4.976c0.641-3.729-0.596-7.529-3.304-10.166l-3.619-3.525    l5.003-0.729c3.739-0.545,6.969-2.894,8.642-6.283l2.234-4.53l2.235,4.525c1.675,3.396,4.913,5.745,8.648,6.282l5.001,0.726    L314.082,170.645z" data-original="#000000" class="active-path" data-old_color="#d8c060" fill="#d8c060"/>
	</g>
</g><g>
	<g>
		<path d="M457.436,157.611c-1.36-4.186-4.911-7.179-9.271-7.813l-17.651-2.561l-7.897-15.99c-1.949-3.946-5.893-6.397-10.294-6.397    c0,0-0.001,0-0.002,0c-4.402,0.001-8.346,2.453-10.294,6.402l-7.889,15.996l-17.649,2.569c-4.356,0.634-7.907,3.629-9.266,7.817    c-1.359,4.188-0.244,8.696,2.909,11.768l12.775,12.445l-3.01,17.577c-0.744,4.339,1.006,8.643,4.568,11.229    c2.012,1.462,4.366,2.204,6.736,2.204c1.826,0,3.661-0.44,5.356-1.332l15.785-8.305l15.792,8.298    c3.897,2.046,8.529,1.708,12.088-0.88c3.56-2.589,5.308-6.891,4.563-11.229l-3.02-17.578l12.769-12.453    C457.685,166.306,458.796,161.797,457.436,157.611z M424.586,170.649c-2.699,2.639-3.929,6.435-3.29,10.155l0.855,4.979    l-4.472-2.351c-3.349-1.759-7.347-1.756-10.686,0.003l-4.471,2.353l0.854-4.985c0.636-3.726-0.601-7.523-3.306-10.156    l-3.619-3.525l5.002-0.729c3.743-0.546,6.975-2.897,8.641-6.283l2.235-4.531l2.235,4.526c1.675,3.396,4.913,5.745,8.648,6.282    l5,0.726L424.586,170.649z" data-original="#000000" class="active-path" data-old_color="#d8c060" fill="#d8c060"/>
	</g>
</g><g>
	<g>
		<path d="M448,240.319H266.15c-5.523,0-10,4.478-10,10c0,5.522,4.477,10,10,10H448c5.523,0,10-4.478,10-10    C458,244.797,453.523,240.319,448,240.319z" data-original="#000000" class="active-path" data-old_color="#d8c060" fill="#d8c060"/>
	</g>
</g><g>
	<g>
		<path d="M409.572,296.319H266.15c-5.523,0-10,4.478-10,10c0,5.522,4.477,10,10,10h143.422c5.523,0,10-4.478,10-10    C419.572,300.797,415.095,296.319,409.572,296.319z" data-original="#000000" class="active-path" data-old_color="#d8c060" fill="#d8c060"/>
	</g>
</g><g>
	<g>
		<path d="M455.07,299.25c-1.86-1.86-4.44-2.931-7.07-2.931s-5.21,1.07-7.07,2.931c-1.86,1.859-2.93,4.439-2.93,7.069    c0,2.631,1.07,5.211,2.93,7.07c1.86,1.86,4.44,2.93,7.07,2.93s5.21-1.069,7.07-2.93c1.86-1.859,2.93-4.439,2.93-7.07    C458,303.689,456.93,301.109,455.07,299.25z" data-original="#000000" class="active-path" data-old_color="#d8c060" fill="#d8c060"/>
	</g>
</g></g> </svg>
